<svg width="115" height="101" viewBox="0 0 115 101" fill="none" xmlns="http://www.w3.org/2000/svg">
<path d="M56.4979 101C82.4256 101 103.444 99.596 103.444 97.8639C103.444 96.1317 82.4256 94.7275 56.4979 94.7275C30.5703 94.7275 9.55176 96.1317 9.55176 97.8639C9.55176 99.596 30.5703 101 56.4979 101Z" fill="#6F5240"/>
<path opacity="0.5" d="M56.4979 101C82.4256 101 103.444 99.596 103.444 97.8639C103.444 96.1317 82.4256 94.7275 56.4979 94.7275C30.5703 94.7275 9.55176 96.1317 9.55176 97.8639C9.55176 99.596 30.5703 101 56.4979 101Z" fill="white"/>
<path d="M45.6641 14.2686H41.1704V15.2491V21.0075V21.9881H50.7008V15.2491H45.9835L45.6641 14.2686Z" fill="#6F5240"/>
<path d="M45.6641 28.96H41.1704V29.9405V35.699V36.6795H50.7008V29.9405H45.9835L45.6641 28.96Z" fill="#6F5240"/>
<path d="M45.6641 43.6519H41.1704V44.6324V50.3908V51.3714H50.7008V44.6324H45.9835L45.6641 43.6519Z" fill="#6F5240"/>
<path d="M45.6641 58.3433H41.1704V59.3238V65.0823V66.0628H50.7008V59.3238H45.9835L45.6641 58.3433Z" fill="#6F5240"/>
<path d="M45.6641 73.0352H41.1704V74.0157V79.7741V80.7546H50.7008V74.0157H45.9835L45.6641 73.0352Z" fill="#6F5240"/>
<path d="M74.4598 14.2686H69.9692V15.2491V21.0075V21.9881H79.4964V15.2491H74.7792L74.4598 14.2686Z" fill="#6F5240"/>
<path d="M93.1439 15.2491L92.8245 14.2686H88.334V15.2491V21.0075V21.9881H97.8612V15.2491H93.1439Z" fill="#6F5240"/>
<path d="M74.4598 28.96H69.9692V29.9405V35.699V36.6795H79.4964V29.9405H74.7792L74.4598 28.96Z" fill="#6F5240"/>
<path d="M92.8245 43.6519H88.334V44.6324V50.3908V51.3714H97.8612V44.6324H93.1439L92.8245 43.6519Z" fill="#6F5240"/>
<path d="M92.8245 28.96H88.334V29.9405V35.699V36.6795H97.8612V29.9405H93.1439L92.8245 28.96Z" fill="#6F5240"/>
<path d="M74.4598 43.6519H69.9692V44.6324V50.3908V51.3714H79.4964V44.6324H74.7792L74.4598 43.6519Z" fill="#6F5240"/>
<path d="M74.4598 58.3433H69.9692V59.3238V65.0823V66.0628H79.4964V59.3238H74.7792L74.4598 58.3433Z" fill="#6F5240"/>
<path d="M92.8245 58.3433H88.334V59.3238V65.0823V66.0628H97.8612V59.3238H93.1439L92.8245 58.3433Z" fill="#6F5240"/>
<path d="M74.4598 73.0352H69.9692V74.0157V79.7741V80.7546H79.4964V74.0157H74.7792L74.4598 73.0352Z" fill="#6F5240"/>
<path d="M92.8245 73.0352H88.334V74.0157V79.7741V80.7546H97.8612V74.0157H93.1439L92.8245 73.0352Z" fill="#6F5240"/>
<g opacity="0.5">
<path d="M45.6641 14.2686H41.1704V15.2491V21.0075V21.9881H50.7008V15.2491H45.9835L45.6641 14.2686Z" fill="white"/>
<path d="M45.6641 28.96H41.1704V29.9405V35.699V36.6795H50.7008V29.9405H45.9835L45.6641 28.96Z" fill="white"/>
<path d="M45.6641 43.6519H41.1704V44.6324V50.3908V51.3714H50.7008V44.6324H45.9835L45.6641 43.6519Z" fill="white"/>
<path d="M45.6641 58.3433H41.1704V59.3238V65.0823V66.0628H50.7008V59.3238H45.9835L45.6641 58.3433Z" fill="white"/>
<path d="M45.6641 73.0352H41.1704V74.0157V79.7741V80.7546H50.7008V74.0157H45.9835L45.6641 73.0352Z" fill="white"/>
<path d="M74.4598 14.2686H69.9692V15.2491V21.0075V21.9881H79.4964V15.2491H74.7792L74.4598 14.2686Z" fill="white"/>
<path d="M93.1439 15.2491L92.8245 14.2686H88.334V15.2491V21.0075V21.9881H97.8612V15.2491H93.1439Z" fill="white"/>
<path d="M74.4598 28.96H69.9692V29.9405V35.699V36.6795H79.4964V29.9405H74.7792L74.4598 28.96Z" fill="white"/>
<path d="M92.8245 43.6519H88.334V44.6324V50.3908V51.3714H97.8612V44.6324H93.1439L92.8245 43.6519Z" fill="white"/>
<path d="M92.8245 28.96H88.334V29.9405V35.699V36.6795H97.8612V29.9405H93.1439L92.8245 28.96Z" fill="white"/>
<path d="M74.4598 43.6519H69.9692V44.6324V50.3908V51.3714H79.4964V44.6324H74.7792L74.4598 43.6519Z" fill="white"/>
<path d="M74.4598 58.3433H69.9692V59.3238V65.0823V66.0628H79.4964V59.3238H74.7792L74.4598 58.3433Z" fill="white"/>
<path d="M92.8245 58.3433H88.334V59.3238V65.0823V66.0628H97.8612V59.3238H93.1439L92.8245 58.3433Z" fill="white"/>
<path d="M74.4598 73.0352H69.9692V74.0157V79.7741V80.7546H79.4964V74.0157H74.7792L74.4598 73.0352Z" fill="white"/>
<path d="M92.8245 73.0352H88.334V74.0157V79.7741V80.7546H97.8612V74.0157H93.1439L92.8245 73.0352Z" fill="white"/>
</g>
<path d="M20.4426 36.2291C20.4426 36.2291 20.1552 38.1997 21.1069 39.5475C22.0587 40.8953 29.0021 46.542 29.6217 46.8678C30.2413 47.1936 32.905 46.4973 32.1001 44.3447C31.2953 42.192 25.4474 37.6376 24.2752 36.4048C23.1031 35.172 22.0108 35.3508 22.0108 35.3508" fill="#6F5240"/>
<path d="M20.4426 36.2291C20.4426 36.2291 20.1552 38.1997 21.1069 39.5475C22.0587 40.8953 29.0021 46.542 29.6217 46.8678C30.2413 47.1936 32.905 46.4973 32.1001 44.3447C31.2953 42.192 25.4474 37.6376 24.2752 36.4048C23.1031 35.172 22.0108 35.3508 22.0108 35.3508" stroke="#263238" stroke-miterlimit="10"/>
<path d="M31.062 43.415C31.062 43.415 32.3938 43.5077 34.8658 43.415C37.3379 43.3224 43.5211 43.6993 44.4729 43.6993H45.431L45.3384 45.8871C45.3384 45.8871 40.6754 46.2671 37.4433 46.743C34.2111 47.2189 31.5474 47.7906 28.8838 46.4588" fill="#6F5240"/>
<path d="M31.062 43.415C31.062 43.415 32.3938 43.5077 34.8658 43.415C37.3379 43.3224 43.5211 43.6993 44.4729 43.6993H45.431L45.3384 45.8871C45.3384 45.8871 40.6754 46.2671 37.4433 46.743C34.2111 47.2189 31.5474 47.7906 28.8838 46.4588" stroke="#263238" stroke-linecap="round" stroke-linejoin="round"/>
<path d="M45.4219 43.6996L45.588 43.3131C45.8509 42.6993 46.2971 42.1817 46.8655 41.8312C47.3664 41.6847 47.8447 41.4697 48.2868 41.1924L48.3666 41.1445C48.3666 41.1445 48.9607 41.317 48.6126 41.7833C48.525 41.9189 48.4035 42.0292 48.26 42.1032C48.1166 42.1772 47.9562 42.2122 47.7949 42.2049L47.3191 42.965L50.5927 43.2301C50.5927 43.2301 51.0654 43.4185 50.6854 43.7028C50.3053 43.987 48.4497 43.9168 48.4497 43.9168L50.8099 44.332C50.8099 44.332 51.0782 44.6003 50.9632 44.827C50.8482 45.0538 48.373 44.7504 48.373 44.7504L50.4682 45.3221C50.5535 45.3868 50.6147 45.4784 50.6419 45.582C50.6691 45.6856 50.6608 45.7954 50.6183 45.8938C50.5448 46.0854 50.0881 46.0087 49.8965 45.9321C49.7049 45.8554 48.3347 45.6287 48.3347 45.6287L49.8582 46.4655C49.8431 46.556 49.8061 46.6414 49.7505 46.7143C49.6948 46.7873 49.6221 46.8455 49.5388 46.8839C49.3142 46.9465 49.0767 46.9465 48.8521 46.8839L46.8719 46.0854C46.8719 46.0854 46.7665 46.3505 45.2974 45.9129L45.4219 43.6996Z" fill="white" stroke="#263238" stroke-linecap="round" stroke-linejoin="round"/>
<path d="M47.3251 42.9395C47.3251 42.9395 47.5136 44.3447 46.7886 44.613Z" fill="white"/>
<path d="M47.3251 42.9395C47.3251 42.9395 47.5136 44.3447 46.7886 44.613" stroke="#263238" stroke-linecap="round" stroke-linejoin="round"/>
<path d="M91.1959 37.0917C91.1959 37.0917 91.0745 39.0783 89.8672 40.2057C88.66 41.3331 80.7137 45.4404 80.0398 45.6352C79.3659 45.8301 76.9003 44.6036 78.1235 42.6618C79.3468 40.7199 86.0059 37.4558 87.4048 36.4817C88.8037 35.5076 89.8353 35.91 89.8353 35.91" fill="#6F5240"/>
<path d="M91.1959 37.0917C91.1959 37.0917 91.0745 39.0783 89.8672 40.2057C88.66 41.3331 80.7137 45.4404 80.0398 45.6352C79.3659 45.8301 76.9003 44.6036 78.1235 42.6618C79.3468 40.7199 86.0059 37.4558 87.4048 36.4817C88.8037 35.5076 89.8353 35.91 89.8353 35.91" stroke="#263238" stroke-miterlimit="10"/>
<path d="M79.3209 41.9619C79.3209 41.9619 77.9986 41.7831 75.5969 41.1858C73.1951 40.5886 67.0661 39.7007 66.1335 39.5059L65.2041 39.311L64.8496 41.4733C64.8496 41.4733 69.321 42.7955 72.403 43.9229C75.4851 45.0504 77.9635 46.1586 80.8411 45.3889" fill="#6F5240"/>
<path d="M79.3209 41.9619C79.3209 41.9619 77.9986 41.7831 75.5969 41.1858C73.1951 40.5886 67.0661 39.7007 66.1335 39.5059L65.2041 39.311L64.8496 41.4733C64.8496 41.4733 69.321 42.7955 72.403 43.9229C75.4851 45.0504 77.9635 46.1586 80.8411 45.3889" stroke="#263238" stroke-linecap="round" stroke-linejoin="round"/>
<path d="M65.2044 39.3078L65.1213 38.8958C64.9864 38.2399 64.6517 37.6419 64.1632 37.1839C63.7026 36.9338 63.2782 36.6222 62.9016 36.2577L62.8377 36.1938C62.8377 36.1938 62.2181 36.2418 62.4705 36.756C62.5276 36.9066 62.6237 37.0394 62.7487 37.1409C62.8738 37.2424 63.0235 37.3091 63.1827 37.334L63.5021 38.1772L60.2444 37.7684C60.2444 37.7684 59.7397 37.8578 60.0559 38.2123C60.3721 38.5669 62.1926 38.8735 62.1926 38.8735L59.7972 38.8032C59.7972 38.8032 59.4778 39.0076 59.5449 39.2567C59.612 39.5059 62.1 39.7103 62.1 39.7103L59.9345 39.8412C59.8377 39.8868 59.7587 39.9633 59.7102 40.0588C59.6616 40.1542 59.6461 40.263 59.6663 40.3682C59.7046 40.5726 60.1677 40.5886 60.3689 40.5534C60.5701 40.5183 61.9658 40.5758 61.9658 40.5758L60.3018 41.0836C60.2974 41.1737 60.3146 41.2636 60.3518 41.3458C60.389 41.428 60.4452 41.5001 60.5158 41.5563C60.7224 41.6633 60.9543 41.7119 61.1865 41.6968L63.2881 41.3168C63.2881 41.3168 63.3392 41.5978 64.8658 41.4701L65.2044 39.3078Z" fill="white" stroke="#263238" stroke-linecap="round" stroke-linejoin="round"/>
<path d="M63.4957 38.1772C63.4957 38.1772 63.0262 39.5155 63.6777 39.9243Z" fill="white"/>
<path d="M63.4957 38.1772C63.4957 38.1772 63.0262 39.5155 63.6777 39.9243" stroke="#263238" stroke-linecap="round" stroke-linejoin="round"/>
<path d="M65.744 51.981H47.603V27.6855H60.3432L65.744 32.6328V51.981Z" fill="white" stroke="#263238" stroke-linecap="round" stroke-linejoin="round"/>
<path d="M60.3433 27.6855V32.6328H65.744L60.3433 27.6855Z" fill="#263238" stroke="#263238" stroke-linecap="round" stroke-linejoin="round"/>
<path d="M67.6094 52.2108C69.4691 50.2429 69.3813 47.14 67.4134 45.2803C65.4455 43.4206 62.3426 43.5084 60.4829 45.4763C58.6233 47.4442 58.711 50.5471 60.679 52.4068C62.6469 54.2664 65.7497 54.1787 67.6094 52.2108Z" fill="#263238"/>
<path d="M66.6861 48.2764H64.6102V46.2036H63.4795V48.2764H61.4067V49.4102H63.4795V51.483H64.6102V49.4102H66.6861V48.2764Z" fill="white"/>
<path d="M74.6293 79.5149H39.7239L35.6997 52.6133H74.6293V79.5149Z" fill="#263238" stroke="#263238" stroke-linecap="round" stroke-linejoin="round"/>
<path d="M56.4406 52.6136L55.9168 51.1061C55.7763 50.7022 55.5135 50.3521 55.165 50.1043C54.8164 49.8564 54.3994 49.7233 53.9718 49.7231H39.8486V79.5152H74.7572L78.7783 52.6136H56.4406Z" fill="#6F5240" stroke="#263238" stroke-linecap="round" stroke-linejoin="round"/>
<path d="M18.2931 92.482C18.2931 92.482 19.0692 94.2227 19.8421 94.804C20.615 95.3852 22.0778 95.2894 22.263 96.2571C22.4483 97.2249 21.6817 97.3207 21.0047 97.3207C20.3276 97.3207 18.1973 97.3207 17.8108 97.2249C16.5903 96.7966 15.4462 96.1755 14.4222 95.3852C13.2628 94.4271 12.9722 94.5133 13.8441 92.6737C14.716 90.834 18.2931 92.482 18.2931 92.482Z" fill="#6F5240" stroke="#263238" stroke-miterlimit="10"/>
<path d="M22.2887 96.4426C21.3497 96.6087 19.5101 96.8354 17.8908 96.4426C16.2715 96.0498 14.3584 94.5934 13.3907 93.7949C13.1895 94.5487 13.5696 94.686 14.4223 95.3918C15.4475 96.1764 16.5914 96.7921 17.811 97.2155C18.1974 97.3113 20.3277 97.3113 21.0048 97.3113C21.6819 97.3113 22.3494 97.2347 22.2887 96.4426Z" fill="white" stroke="#263238" stroke-miterlimit="10"/>
<path d="M21.1963 60.8696C21.1963 60.8696 19.8676 72.0161 18.8041 74.8235C17.7405 77.6309 16.1372 79.4066 15.7508 81.5305C15.3643 83.6544 13.8345 92.6706 13.8345 92.6706C13.8345 92.6706 14.7926 93.6288 15.4793 93.5425C16.166 93.4563 18.1877 93.7374 18.7689 92.6706C19.3502 91.6039 19.4939 89.8792 19.5898 89.5886C19.6856 89.2979 23.7417 81.4507 24.7223 78.3527C25.7028 75.2547 28.8072 62.4601 28.7114 60.9111" fill="#263238"/>
<path d="M21.1963 60.8696C21.1963 60.8696 19.8676 72.0161 18.8041 74.8235C17.7405 77.6309 16.1372 79.4066 15.7508 81.5305C15.3643 83.6544 13.8345 92.6706 13.8345 92.6706C13.8345 92.6706 14.7926 93.6288 15.4793 93.5425C16.166 93.4563 18.1877 93.7374 18.7689 92.6706C19.3502 91.6039 19.4939 89.8792 19.5898 89.5886C19.6856 89.2979 23.7417 81.4507 24.7223 78.3527C25.7028 75.2547 28.8072 62.4601 28.7114 60.9111" stroke="#263238" stroke-miterlimit="10"/>
<path d="M20.4875 53.2236C20.4875 53.2236 19.3026 56.7081 19.7465 59.8221C20.1905 62.9361 23.6781 64.4947 26.1342 64.0475C28.5902 63.6004 29.2482 61.8981 29.2482 58.9374C29.2401 57.1053 29.1132 55.2756 28.8681 53.46C26.1288 54.3355 23.1731 54.2522 20.4875 53.2236Z" fill="#263238" stroke="#263238" stroke-miterlimit="10"/>
<path d="M21.3048 30.5347C21.3048 30.5347 19.0691 34.6867 18.9318 38.021C18.7944 41.3554 20.4872 53.2237 20.4872 53.2237C20.4872 53.2237 21.1547 54.5587 24.3453 54.7056C27.5359 54.8525 28.8678 53.7474 28.8678 53.7474C28.8678 53.7474 29.9792 46.1845 29.9792 42.1794C29.9792 38.1743 26.8652 32.2434 26.8652 32.2434L21.3048 30.5347Z" fill="#6F5240" stroke="#263238" stroke-miterlimit="10"/>
<path d="M19.5869 39.7681C19.5869 39.7681 19.7817 42.1155 22.6211 42.4094" stroke="#263238" stroke-linecap="round" stroke-linejoin="round"/>
<path d="M20.3691 42.8979C21.404 43.5083 22.6269 43.7174 23.8057 43.4856" stroke="#263238" stroke-linecap="round" stroke-linejoin="round"/>
<path d="M21.4458 53.3639C21.4458 53.3639 24.2819 50.9206 25.7511 48.6689" stroke="#263238" stroke-linecap="round" stroke-linejoin="round"/>
<path d="M25.4569 51.0166C25.4569 51.0166 23.0104 53.5717 22.1289 53.8559" stroke="#263238" stroke-linecap="round" stroke-linejoin="round"/>
<path d="M22.9336 25.0347C22.9336 25.0347 22.8602 27.1107 22.6398 28.5192C22.4194 29.9277 22.3428 30.5217 22.3428 30.5217L26.4213 32.0771C26.4213 32.0771 26.0476 29.2602 26.5682 28.0721C26.8616 27.4377 27.0617 26.7643 27.1623 26.0727C27.1623 26.0727 25.8272 22.8086 24.4188 22.5851C23.0103 22.3615 22.9336 25.0347 22.9336 25.0347Z" fill="white" stroke="#263238" stroke-miterlimit="10"/>
<path d="M28.4974 19.04C28.4974 19.04 29.2384 18.3725 28.2738 16.1655C27.3093 13.9586 22.6399 14.0896 20.4138 16.0889C18.1877 18.0882 17.4467 21.6526 19.3758 23.9489C21.3049 26.2453 23.6012 26.5455 25.0864 25.6544C26.5715 24.7634 26.7152 23.061 26.7152 22.3935C26.7152 21.726 26.1978 20.094 26.9388 19.65C27.4218 19.3635 27.9482 19.1575 28.4974 19.04Z" fill="#263238" stroke="#263238" stroke-miterlimit="10"/>
<path d="M20.8579 30.6815L27.4596 33.3516L27.0891 31.2021L21.2284 28.7524L20.8579 30.6815Z" fill="white" stroke="#263238" stroke-miterlimit="10"/>
<path d="M29.3279 95.0944C29.3279 95.0944 31.2633 96.257 32.3269 96.7392C33.3904 97.2215 33.4895 97.1257 33.4895 97.8028C33.4895 98.4799 33.5853 98.5789 31.8414 98.5789C30.0976 98.5789 25.0673 98.6747 24.585 98.2882C24.1028 97.9018 28.6508 94.8038 29.3279 95.0944Z" fill="#6F5240" stroke="#263238" stroke-miterlimit="10"/>
<path d="M31.8413 98.5788C33.4734 98.5788 33.4925 98.4926 33.4893 97.9401C28.5293 98.0902 26.1116 97.9018 24.9362 97.6846C24.6169 97.9816 24.4731 98.2116 24.5849 98.301C25.0832 98.6747 30.1007 98.5788 31.8413 98.5788Z" fill="white" stroke="#263238" stroke-miterlimit="10"/>
<path d="M28.2771 18.5195C28.2771 18.5195 24.7926 20.1516 24.7926 20.7552C24.7926 21.3588 26.2746 21.5696 25.8306 22.3138C25.6196 22.6827 25.369 23.0276 25.0833 23.3422C25.0833 23.3422 25.6741 24.3802 25.1567 24.5271C24.6393 24.674 24.4158 24.674 23.8792 23.9331C23.3426 23.1921 22.8412 22.8216 22.6943 24.0832C22.5474 25.3448 23.1382 25.5651 23.5822 25.6386C23.927 25.6796 24.2754 25.6796 24.6202 25.6386C24.6202 25.6386 25.3643 27.4176 25.8817 27.6411C26.3991 27.8647 28.9223 28.1617 29.4397 27.5677C29.9571 26.9736 29.5898 24.3036 29.5898 24.3036C29.5898 24.3036 30.3307 24.1566 30.3307 23.4891C30.3307 22.8216 29.1458 21.8571 29.1458 21.8571C29.1458 21.8571 29.4397 21.4131 29.2193 20.3751C29.0522 19.6923 28.7298 19.0573 28.2771 18.5195Z" fill="white" stroke="#263238" stroke-miterlimit="10"/>
<path d="M28.3762 22.1857C28.3762 22.4189 28.2836 22.6105 28.1654 22.6105C28.0472 22.6105 27.9546 22.4189 27.9546 22.1857C27.9546 21.9526 28.0472 21.7642 28.1654 21.7642C28.2836 21.7642 28.3762 21.9526 28.3762 22.1857Z" fill="#263238"/>
<path d="M27.437 21.4288C27.437 21.4288 27.5456 20.79 28.5069 20.9145" stroke="#263238" stroke-linecap="round" stroke-linejoin="round"/>
<path d="M28.6925 25.2676C28.3336 25.2365 28.0016 25.0642 27.7695 24.7886" stroke="#263238" stroke-linecap="round" stroke-linejoin="round"/>
<path d="M20.6118 61.0612C20.6118 61.0612 21.2889 67.7395 22.1576 70.6427C23.0264 73.5459 23.0296 74.7947 22.7389 77.321C22.4483 79.8473 21.4805 82.1597 22.1576 84.4816C22.8347 86.8035 24.1921 96.7395 24.1921 97.126C24.1921 97.5124 24.0931 98.0841 24.5786 98.2885C25.064 98.4929 29.2224 95.676 29.3214 95.0947C29.4204 94.5134 28.6443 92.7728 28.6443 91.2238C28.6443 89.6748 29.1266 80.6107 29.1266 76.2575C29.1266 71.9043 29.612 63.578 28.063 59.707" fill="#263238"/>
<path d="M20.6118 61.0612C20.6118 61.0612 21.2889 67.7395 22.1576 70.6427C23.0264 73.5459 23.0296 74.7947 22.7389 77.321C22.4483 79.8473 21.4805 82.1597 22.1576 84.4816C22.8347 86.8035 24.1921 96.7395 24.1921 97.126C24.1921 97.5124 24.0931 98.0841 24.5786 98.2885C25.064 98.4929 29.2224 95.676 29.3214 95.0947C29.4204 94.5134 28.6443 92.7728 28.6443 91.2238C28.6443 89.6748 29.1266 80.6107 29.1266 76.2575C29.1266 71.9043 29.612 63.578 28.063 59.707" stroke="#263238" stroke-miterlimit="10"/>
<path d="M21.168 65.2769C21.168 65.2769 21.6247 68.525 22.1644 70.6425C22.7042 72.76 23.2567 73.7533 22.5988 76.3914C21.9409 79.0295 21.7173 79.9046 22.0463 81.2332" stroke="white" stroke-linecap="round" stroke-linejoin="round"/>
<path d="M80.3559 93.2041C80.3559 93.2041 76.3956 94.5263 75.4534 94.801C74.5112 95.0757 73.6617 95.2737 74.5112 96.2159C75.3608 97.1581 79.5096 97.2539 80.7328 97.2539C81.9561 97.2539 82.8088 97.9118 83.0899 97.1581C83.3709 96.4043 83.3741 94.3283 83.3741 94.3283L80.3559 93.2041Z" fill="#6F5240" stroke="#263238" stroke-miterlimit="10"/>
<path d="M83.2114 96.7073C82.1574 96.6754 80.1677 96.5764 77.8138 96.2729C76.5773 96.1543 75.3629 95.8663 74.2048 95.417C74.1186 95.6054 74.2048 95.8577 74.5242 96.2218C75.3737 97.164 79.5225 97.2598 80.7458 97.2598C81.969 97.2598 82.8218 97.9178 83.1028 97.164C83.1529 97.0154 83.1893 96.8626 83.2114 96.7073Z" fill="white" stroke="#263238" stroke-miterlimit="10"/>
<path d="M92.3298 94.1465C92.3298 94.1465 89.3116 96.4109 88.4653 96.8804C87.6189 97.3499 87.4273 98.1068 88.181 98.1068C88.9348 98.1068 95.0637 98.2953 95.9133 97.73C96.7629 97.1646 95.5364 94.4307 95.5364 94.4307C95.5364 94.4307 93.272 94.1465 92.3298 94.1465Z" fill="#6F5240" stroke="#263238" stroke-miterlimit="10"/>
<path d="M95.9129 97.7295C96.1525 97.5698 96.2323 97.2344 96.2068 96.8384C93.4668 97.3206 90.6812 97.492 87.9028 97.3494C87.6026 97.7358 87.6633 98.1063 88.1934 98.1063C88.9344 98.1063 95.0634 98.2948 95.9129 97.7295Z" fill="white" stroke="#263238" stroke-miterlimit="10"/>
<path d="M85.0696 50.3843C85.0696 50.3843 80.9176 64.8077 80.7323 68.2027C80.5471 71.5977 80.3555 89.6237 80.3555 90.4701V93.204L83.3736 94.3347C83.3736 94.3347 84.7885 83.6641 85.0696 81.1186C85.3506 78.5731 85.5423 75.7433 85.9191 74.4115C86.296 73.0797 87.0497 67.7045 87.334 66.5866C87.6182 65.4688 88.2762 60.7419 88.0877 55.3667C87.8993 49.9915 85.7307 49.0621 85.0696 50.3843Z" fill="#263238" stroke="#263238" stroke-miterlimit="10"/>
<path d="M84.6006 49.3462C84.6006 49.3462 84.6932 53.5876 84.789 57.7364C84.8848 61.8852 84.6006 68.2026 85.5428 72.7282C86.4849 77.2539 90.161 87.0781 90.5379 88.6783C90.9148 90.2784 92.237 94.5262 92.237 94.5262C92.237 94.5262 94.3098 94.7146 95.5363 94.4304C95.5363 94.4304 94.3098 85.2672 94.1214 81.6838C93.933 78.1003 91.6685 73.0093 91.199 71.7829C90.7296 70.5564 92.154 60.7546 92.154 60.7546C92.154 60.7546 94.4152 56.6026 93.8499 53.9645C93.528 52.4055 92.7769 50.9674 91.6813 49.8125C91.6813 49.8125 86.0123 50.5854 84.6006 49.3462Z" fill="#263238" stroke="#263238" stroke-miterlimit="10"/>
<path d="M84.9039 55.2583C84.9039 55.2583 84.7953 66.1557 85.2233 69.2377C85.6513 72.3198 86.1016 73.5334 86.1016 73.5334" stroke="white" stroke-linecap="round" stroke-linejoin="round"/>
<path d="M91.48 31.4224C91.48 31.4224 90.3494 30.576 87.8997 32.3806C85.45 34.1851 82.6203 39.0716 82.8087 40.9592C82.9972 42.8467 84.6005 48.4072 84.6005 49.3494C84.6005 50.2916 84.8815 49.9147 86.0121 50.2916C87.1428 50.6684 90.3494 50.5758 91.1031 50.1989C91.8569 49.8221 91.48 47.3692 91.6684 45.2964C91.8569 43.2236 93.0833 39.1675 92.9907 36.2451C92.8981 33.3227 91.8569 31.8089 91.48 31.4224Z" fill="#6F5240" stroke="#263238" stroke-miterlimit="10"/>
<path d="M86.8618 20.6846C86.8618 20.6846 85.7312 22.0994 85.7312 23.0416C85.7312 23.9838 85.5204 24.9579 84.955 25.421C84.3897 25.8841 84.4089 26.3408 84.8816 26.4367L85.3543 26.5293C85.3543 26.5293 85.6194 28.5861 85.993 29.3431C86.3667 30.1 87.7081 29.4516 87.9892 29.3431C88.2702 29.2345 87.8966 32.077 87.8966 32.3612C87.8966 32.6455 90.7231 32.2654 91.0904 32.2654C91.4577 32.2654 91.2788 28.8704 91.6557 27.8356C92.0326 26.8008 93.2526 25.4785 91.7515 23.2141C90.2504 20.9497 87.7113 19.0813 86.8618 20.6846Z" fill="white" stroke="#263238" stroke-miterlimit="10"/>
<path d="M86.4497 24.8877C86.4497 25.1208 86.5423 25.3093 86.6605 25.3093C86.7787 25.3093 86.8713 25.1208 86.8713 24.8877C86.8713 24.6545 86.7787 24.4629 86.6605 24.4629C86.5423 24.4629 86.4497 24.6545 86.4497 24.8877Z" fill="#263238"/>
<path d="M85.8745 27.2706C85.8745 27.2706 86.1939 27.6378 86.9157 27.146" stroke="#263238" stroke-linecap="round" stroke-linejoin="round"/>
<path d="M86.1206 23.7064C86.1206 23.7064 86.67 23.0325 87.3438 23.8917" stroke="#263238" stroke-linecap="round" stroke-linejoin="round"/>
<path d="M89.5381 31.2564C89.5381 31.2564 87.0916 32.1348 86.6987 32.7224C86.3059 33.3101 86.0153 34.2874 86.6029 34.2874C87.1906 34.2874 89.7297 32.5787 90.4164 32.4286C91.103 32.2785 90.4164 30.3749 89.5381 31.2564Z" fill="white" stroke="#263238" stroke-miterlimit="10"/>
<path d="M86.8617 20.685C87.0951 21.9462 87.6105 23.1384 88.3691 24.1726C89.5956 25.7695 90.822 25.3991 90.5378 26.7277C90.2535 28.0563 88.1807 29.9215 89.0303 32.0103C89.8798 34.0991 91.7642 34.46 92.1411 35.3095C92.5179 36.1591 93.3675 36.4401 92.4253 39.8352C91.4831 43.2302 90.0683 45.961 91.2915 49.1676C92.5147 52.3742 95.7245 53.2205 98.1742 52.0899C100.624 50.9593 99.1164 47.3758 99.6849 45.2072C100.253 43.0386 105.153 41.3427 103.454 35.3063C101.755 29.27 97.7973 27.6699 96.7466 25.5939C95.6958 23.5179 95.9002 20.0334 93.7316 18.6185C91.563 17.2037 89.1101 18.4301 88.2638 18.6185C87.4174 18.807 86.9415 17.3921 85.2456 18.0532C83.5496 18.7144 82.5372 21.8858 85.565 22.5502C85.8827 21.8562 86.3218 21.2245 86.8617 20.685Z" fill="#263238" stroke="#263238" stroke-miterlimit="10"/>
<path d="M89.979 25.2007C90.5704 25.8138 91.2784 26.3025 92.0614 26.6379C95.5746 28.1773 98.0051 30.3811 98.0051 34.1211C98.0051 37.861 94.4919 40.3969 94.3705 43.5908C94.2492 46.7846 96.0217 49.2023 97.8837 48.2123C99.7457 47.2222 98.877 45.242 98.2031 45.242" stroke="white" stroke-linecap="round" stroke-linejoin="round"/>
<path d="M88.3213 21.6846C88.3936 22.3439 88.5794 22.9858 88.8706 23.5817" stroke="white" stroke-linecap="round" stroke-linejoin="round"/>
<path d="M99.787 32.1152C100.496 33.6794 100.865 35.3768 100.867 37.0944C100.755 40.9462 96.1333 42.7092 95.5807 45.0215C95.0857 47.1007 96.574 48.9819 97.8931 48.2154" stroke="white" stroke-linecap="round" stroke-linejoin="round"/>
<path d="M98.4458 29.6084C98.7565 30.0739 99.0381 30.5581 99.289 31.0584" stroke="white" stroke-linecap="round" stroke-linejoin="round"/>
<path d="M93.2715 37.0946C93.7181 35.6171 93.6789 34.0353 93.1597 32.5817C92.2782 30.2694 91.2881 29.1675 91.2881 27.957" stroke="white" stroke-linecap="round" stroke-linejoin="round"/>
<path d="M86.8616 20.6849C86.696 20.3968 86.46 20.1554 86.1757 19.9834C85.8914 19.8113 85.568 19.7142 85.236 19.7012C84.1341 19.7012 84.2427 21.132 85.4532 21.3524" stroke="white" stroke-linecap="round" stroke-linejoin="round"/>
<path d="M22.164 34.546C22.164 34.546 20.8098 36.4815 21.1005 38.4169C21.3911 40.3524 25.7475 50.0297 26.2298 50.7068C26.712 51.3839 29.9059 52.0642 30.1965 49.3526C30.4871 46.6411 26.7152 38.7076 26.1339 36.7721C25.5527 34.8367 24.2943 34.4502 24.2943 34.4502" fill="#6F5240"/>
<path d="M22.164 34.546C22.164 34.546 20.8098 36.4815 21.1005 38.4169C21.3911 40.3524 25.7475 50.0297 26.2298 50.7068C26.712 51.3839 29.9059 52.0642 30.1965 49.3526C30.4871 46.6411 26.7152 38.7076 26.1339 36.7721C25.5527 34.8367 24.2943 34.4502 24.2943 34.4502" stroke="#263238" stroke-miterlimit="10"/>
<path d="M29.4782 47.3276C29.4782 47.3276 32.3143 47.6885 34.3008 48.8894C36.2874 50.0903 42.6048 52.3388 42.6048 52.3388L42.1513 54.2135C42.1513 54.2135 35.1983 53.4119 32.2504 52.8689C29.3025 52.326 27.3894 52.0673 26.3003 50.5023" fill="#6F5240"/>
<path d="M29.4782 47.3276C29.4782 47.3276 32.3143 47.6885 34.3008 48.8894C36.2874 50.0903 42.6048 52.3388 42.6048 52.3388L42.1513 54.2135C42.1513 54.2135 35.1983 53.4119 32.2504 52.8689C29.3025 52.326 27.3894 52.0673 26.3003 50.5023" stroke="#263238" stroke-miterlimit="10"/>
<path d="M48.3506 54.715L45.7699 53.9069L45.7987 53.6354C45.7987 53.6354 47.9992 54.0602 48.2388 54.089C48.4783 54.1177 48.5582 53.9995 48.5582 53.8494C48.5424 53.7356 48.4897 53.6301 48.408 53.5492L44.799 52.2525L46.8718 51.8629C47.172 51.6233 46.8399 51.3838 46.8399 51.3838L44.4062 51.4413L42.6112 52.3387L42.1577 54.2135C42.1577 54.2135 45.4889 57.088 45.639 57.1806C45.7891 57.2732 45.8785 57.4201 46.1181 57.27C46.3576 57.1199 46.2682 56.9506 46.2682 56.9506L45.2046 55.8584L47.0379 56.3981C47.2455 56.4588 47.2774 56.5195 47.4275 56.4588C47.5777 56.3981 47.6064 56.0085 47.6064 56.0085L45.4729 55.0184L45.5655 54.8076C45.5655 54.8076 47.9322 55.3761 48.0791 55.3761C48.226 55.3761 48.3186 55.3761 48.44 55.1078C48.4779 55.0433 48.4898 54.9666 48.4732 54.8936C48.4566 54.8206 48.4127 54.7567 48.3506 54.715Z" fill="white" stroke="#263238" stroke-linecap="round" stroke-linejoin="round"/>
<path d="M92.093 35.383C92.093 35.383 90.7835 33.5657 88.9375 34.7442C87.0914 35.9227 80.3972 42.1252 80.3972 42.1252C80.3972 42.1252 79.043 43.7221 81.0359 44.891C83.0289 46.06 91.2051 38.7908 92.0898 38.184" fill="#6F5240"/>
<path d="M92.093 35.383C92.093 35.383 90.7835 33.5657 88.9375 34.7442C87.0914 35.9227 80.3972 42.1252 80.3972 42.1252C80.3972 42.1252 79.043 43.7221 81.0359 44.891C83.0289 46.06 91.2051 38.7908 92.0898 38.184" stroke="#263238" stroke-miterlimit="10"/>
<path d="M81.7483 42.1536C81.7483 42.1536 80.755 41.5308 78.497 41.1348C76.239 40.7387 68.4811 36.4175 68.4811 36.4175L67.2036 38.0144C67.2036 38.0144 72.6619 42.029 75.5076 43.7473C78.3533 45.4656 79.6244 45.9191 80.5379 45.8265C81.4513 45.7339 83.5816 43.7377 83.5816 43.7377" fill="#6F5240"/>
<path d="M81.7483 42.1536C81.7483 42.1536 80.755 41.5308 78.497 41.1348C76.239 40.7387 68.4811 36.4175 68.4811 36.4175L67.2036 38.0144C67.2036 38.0144 72.6619 42.029 75.5076 43.7473C78.3533 45.4656 79.6244 45.9191 80.5379 45.8265C81.4513 45.7339 83.5816 43.7377 83.5816 43.7377" stroke="#263238" stroke-miterlimit="10"/>
<path d="M63.1252 32.9588L65.1884 34.6036L65.3896 34.4343C65.3896 34.4343 63.8502 32.8885 63.6969 32.7096C63.5436 32.5308 63.5883 32.3903 63.6969 32.3104C63.7964 32.2636 63.9081 32.2491 64.0162 32.2689L67.0248 34.4822L66.2136 32.5947C66.2455 32.221 66.6192 32.3583 66.6192 32.3583L67.8968 34.3577L68.2928 36.3251L67.3027 38.104C67.3027 38.104 62.7451 36.555 62.5918 36.4848C62.4385 36.4145 62.2724 36.4209 62.2565 36.143C62.2405 35.8651 62.4417 35.8428 62.4417 35.8428L63.9045 36.127L62.4864 34.9357C62.3235 34.7984 62.2596 34.808 62.2245 34.6515C62.1894 34.495 62.4928 34.2618 62.4928 34.2618L64.4538 35.4468L64.5752 35.2583C64.5752 35.2583 62.8218 33.6614 62.7387 33.5305C62.6557 33.3995 62.6078 33.3356 62.7611 33.0929C62.7929 33.028 62.8485 32.9779 62.9163 32.9529C62.9841 32.9279 63.0589 32.93 63.1252 32.9588Z" fill="white" stroke="#263238" stroke-linecap="round" stroke-linejoin="round"/>
</svg>
